<?xml version="1.0" encoding="UTF-8"?>
<svg viewBox="-2 -2 75 75" version="1.1" xmlns="http://www.w3.org/2000/svg"
                xmlns:xlink="http://www.w3.org/1999/xlink">
                <!-- Generator: Sketch 49.2 (51160) - http://www.bohemiancoding.com/sketch -->
                <title>Facebook</title>
                <desc>Created with Sketch. Modified by ThripleBee</desc>
                <defs></defs>
                <g id="Page-1" stroke="none" stroke-width="1" fill="none" fill-rule="evenodd">
                    <g id="Social-Icons---Rounded-Black" transform="translate(-376.000000, -267.000000)">
                        <g id="Facebook" transform="translate(376.000000, 267.000000)">
                            <path d="M8,72 L64,72 C68.418278,72 72,68.418278 72,64 L72,8 C72,3.581722 68.418278,-8.11624501e-16 64,0 L8,0 C3.581722,8.11624501e-16 -5.41083001e-16,3.581722 0,8 L0,64 C5.41083001e-16,68.418278 3.581722,72 8,72 Z" id="Rounded" fill="#000000"></path>
                            <path
                            d="M60.4641463,13.4173171 L60.4641463,22.7278049 L54.9382927,22.7421951 C50.6068293,22.7421951 49.7721951,24.8 49.7721951,27.807561 L49.7721951,34.4702439 L60.09,34.4702439 L58.7517073,44.8887805 L49.7721951,44.8887805 L49.7721951,72 L39.0097317,72 L39.0097317,44.8887805 L30,44.8887805 L30,34.4702439 L39.0097317,34.4702439 L39.0097317,26.7858537 C39.0097317,17.8639024 44.4478049,13 52.42,13 C56.2204634,13 59.5,13.2878049 60.4641463,13.4173171 Z"
                            fill="#FFFFFF"></path>
                        </g>
                    </g>
                </g>
            </svg>